<svg xmlns="http://www.w3.org/2000/svg" width="24" height="24"><path fill="none" stroke="#acacac" stroke-linecap="round" stroke-linejoin="round" stroke-miterlimit="10" d="M11 8l5-5 5 5M8 8h15l-3 10h-9.4"/><path d="M20 22c0-.6-.4-1-1-1s-1 .4-1 1 .4 1 1 1 1-.4 1-1"/><circle fill="none" stroke="#acacac" stroke-linecap="round" stroke-linejoin="round" stroke-miterlimit="10" cx="19" cy="22" r="1"/><path d="M13 22c0-.6-.4-1-1-1s-1 .4-1 1 .4 1 1 1 1-.4 1-1"/><circle fill="none" stroke="#acacac" stroke-linecap="round" stroke-linejoin="round" stroke-miterlimit="10" cx="12" cy="22" r="1"/><path fill="none" stroke="#acacac" stroke-linecap="round" stroke-linejoin="round" stroke-miterlimit="10" d="M1 1h3c1.1 0 2.2.9 2.5 1.9L10.6 18"/></svg>